<svg width="398" height="168" viewBox="0 0 398 168" fill="none" xmlns="http://www.w3.org/2000/svg">
<rect x="101.5" y="37.5" width="25" height="25" rx="4.1" fill="white" stroke="#ECECF4" stroke-dasharray="2 2"/>
<rect x="101.5" y="71.5" width="25" height="25" rx="4.1" fill="white" stroke="#ECECF4" stroke-dasharray="2 2"/>
<rect x="101.5" y="105.5" width="25" height="25" rx="4.1" fill="white" stroke="#ECECF4" stroke-dasharray="2 2"/>
<rect x="135.5" y="37.5" width="25" height="25" rx="4.1" fill="white" stroke="#ECECF4" stroke-dasharray="2 2"/>
<rect x="135" y="71" width="26" height="26" rx="4.6" fill="white" stroke="#473CAF" stroke-width="2"/>
<rect x="135.5" y="105.5" width="25" height="25" rx="4.1" fill="white" stroke="#ECECF4" stroke-dasharray="2 2"/>
<rect x="169.5" y="37.5" width="25" height="25" rx="4.1" fill="white" stroke="#ECECF4" stroke-dasharray="2 2"/>
<rect x="169.5" y="71.5" width="25" height="25" rx="4.1" fill="white" stroke="#ECECF4" stroke-dasharray="2 2"/>
<rect x="169.5" y="105.5" width="25" height="25" rx="4.1" fill="white" stroke="#ECECF4" stroke-dasharray="2 2"/>
<rect x="203.5" y="37.5" width="25" height="25" rx="4.1" fill="white" stroke="#ECECF4" stroke-dasharray="2 2"/>
<rect x="203.5" y="71.5" width="25" height="25" rx="4.1" fill="white" stroke="#ECECF4" stroke-dasharray="2 2"/>
<rect x="203" y="105" width="26" height="26" rx="13" fill="white" stroke="#473CAF" stroke-width="2"/>
<rect x="237" y="37" width="26" height="26" rx="13" fill="white" stroke="#473CAF" stroke-width="2"/>
<rect x="237.5" y="71.5" width="25" height="25" rx="4.1" fill="white" stroke="#ECECF4" stroke-dasharray="2 2"/>
<rect x="237.5" y="105.5" width="25" height="25" rx="4.1" fill="white" stroke="#ECECF4" stroke-dasharray="2 2"/>
<rect x="271.5" y="37.5" width="25" height="25" rx="4.1" fill="white" stroke="#ECECF4" stroke-dasharray="2 2"/>
<rect x="271.5" y="71.5" width="25" height="25" rx="4.1" fill="white" stroke="#ECECF4" stroke-dasharray="2 2"/>
<rect x="271.5" y="105.5" width="25" height="25" rx="4.1" fill="white" stroke="#ECECF4" stroke-dasharray="2 2"/>
<rect x="305.5" y="37.5" width="25" height="25" rx="4.1" fill="white" stroke="#ECECF4" stroke-dasharray="2 2"/>
<rect x="305" y="71" width="26" height="26" rx="4.6" fill="white" stroke="#473CAF" stroke-width="2"/>
<rect x="305.5" y="105.5" width="25" height="25" rx="4.1" fill="white" stroke="#ECECF4" stroke-dasharray="2 2"/>
<rect x="339.5" y="37.5" width="25" height="25" rx="4.1" fill="white" stroke="#ECECF4" stroke-dasharray="2 2"/>
<rect x="339.5" y="71.5" width="25" height="25" rx="4.1" fill="white" stroke="#ECECF4" stroke-dasharray="2 2"/>
<rect x="339.5" y="105.5" width="25" height="25" rx="4.1" fill="white" stroke="#ECECF4" stroke-dasharray="2 2"/>
<rect x="33.5" y="37.5" width="25" height="25" rx="4.1" fill="white" stroke="#ECECF4" stroke-dasharray="2 2"/>
<rect x="33.5" y="71.5" width="25" height="25" rx="4.1" fill="white" stroke="#ECECF4" stroke-dasharray="2 2"/>
<rect x="33.5" y="105.5" width="25" height="25" rx="4.1" fill="white" stroke="#ECECF4" stroke-dasharray="2 2"/>
<rect x="67" y="37" width="26" height="26" rx="4.6" fill="white" stroke="#473CAF" stroke-width="2"/>
<rect x="67.5" y="71.5" width="25" height="25" rx="4.1" fill="white" stroke="#ECECF4" stroke-dasharray="2 2"/>
<rect x="67" y="105" width="26" height="26" rx="13" fill="white" stroke="#473CAF" stroke-width="2"/>
</svg>
