<svg width="398" height="168" viewBox="0 0 398 168" fill="none" xmlns="http://www.w3.org/2000/svg">
<ellipse cx="198" cy="155" rx="34" ry="4" fill="#ECECF4"/>
<path d="M275.5 101.32C275.5 101.433 275.451 101.591 275.259 101.801C275.065 102.013 274.752 102.247 274.299 102.493C273.392 102.985 272.023 103.476 270.215 103.951C266.607 104.899 261.363 105.757 254.856 106.48C241.851 107.925 223.87 108.82 204 108.82C184.13 108.82 166.149 107.925 153.144 106.48C146.637 105.757 141.393 104.899 137.785 103.951C135.977 103.476 134.608 102.985 133.701 102.493C133.248 102.247 132.935 102.013 132.741 101.801C132.549 101.591 132.5 101.433 132.5 101.32C132.5 101.207 132.549 101.049 132.741 100.84C132.935 100.627 133.248 100.394 133.701 100.147C134.608 99.6552 135.977 99.1649 137.785 98.6899C141.393 97.7421 146.637 96.8833 153.144 96.1604C166.149 94.7153 184.13 93.8203 204 93.8203C223.87 93.8203 241.851 94.7153 254.856 96.1604C261.363 96.8833 266.607 97.7421 270.215 98.6899C272.023 99.1649 273.392 99.6552 274.299 100.147C274.752 100.394 275.065 100.627 275.259 100.84C275.451 101.049 275.5 101.207 275.5 101.32Z" stroke="#ECECF4"/>
<rect x="175.634" y="125.954" width="26" height="26" rx="13" transform="rotate(30 175.634 125.954)" stroke="#35956A" stroke-width="2"/>
<rect x="236.616" y="59.4914" width="34" height="34" rx="11" transform="rotate(60 236.616 59.4914)" fill="white" stroke="#473CAF" stroke-width="2"/>
<path d="M248.5 129.32C248.5 129.372 248.48 129.465 248.357 129.605C248.232 129.749 248.023 129.915 247.706 130.095C247.074 130.455 246.109 130.819 244.82 131.174C242.251 131.882 238.509 132.524 233.858 133.066C224.563 134.149 211.708 134.82 197.5 134.82C183.292 134.82 170.437 134.149 161.142 133.066C156.491 132.524 152.749 131.882 150.18 131.174C148.891 130.819 147.926 130.455 147.294 130.095C146.977 129.915 146.768 129.749 146.643 129.605C146.52 129.465 146.5 129.372 146.5 129.32C146.5 129.268 146.52 129.176 146.643 129.035C146.768 128.892 146.977 128.726 147.294 128.546C147.926 128.186 148.891 127.822 150.18 127.467C152.749 126.759 156.491 126.116 161.142 125.574C170.437 124.491 183.292 123.82 197.5 123.82C211.708 123.82 224.563 124.491 233.858 125.574C238.509 126.116 242.251 126.759 244.82 127.467C246.109 127.822 247.074 128.186 247.706 128.546C248.023 128.726 248.232 128.892 248.357 129.035C248.48 129.176 248.5 129.268 248.5 129.32Z" stroke="#ECECF4"/>
<path d="M291.5 70.3203C291.5 70.5062 291.419 70.7337 291.173 71.0096C290.924 71.2884 290.529 71.5876 289.969 71.8985C288.85 72.5201 287.167 73.1354 284.955 73.7299C280.538 74.9167 274.123 75.9907 266.169 76.8946C250.268 78.7015 228.288 79.8203 204 79.8203C179.712 79.8203 157.732 78.7015 141.831 76.8946C133.877 75.9907 127.462 74.9167 123.045 73.7299C120.833 73.1354 119.15 72.5201 118.031 71.8985C117.471 71.5876 117.076 71.2884 116.827 71.0096C116.581 70.7337 116.5 70.5062 116.5 70.3203C116.5 70.1344 116.581 69.9069 116.827 69.6311C117.076 69.3523 117.471 69.053 118.031 68.7421C119.15 68.1206 120.833 67.5052 123.045 66.9107C127.462 65.724 133.877 64.6499 141.831 63.746C157.732 61.9391 179.712 60.8203 204 60.8203C228.288 60.8203 250.268 61.9391 266.169 63.746C274.123 64.6499 280.538 65.724 284.955 66.9107C287.167 67.5052 288.85 68.1206 289.969 68.7421C290.529 69.053 290.924 69.3523 291.173 69.6311C291.419 69.9069 291.5 70.1344 291.5 70.3203Z" stroke="#ECECF4"/>
<rect x="151.314" y="5.63397" width="42" height="42" rx="9" transform="rotate(30 151.314 5.63397)" fill="white" stroke="#D1D0DC" stroke-width="2"/>
</svg>
