<svg width="398" height="168" viewBox="0 0 398 168" fill="none" xmlns="http://www.w3.org/2000/svg">
<path d="M2 31.5C1.72386 31.5 1.5 31.7239 1.5 32C1.5 32.2761 1.72386 32.5 2 32.5L2 31.5ZM57.873 31.5C57.5969 31.5 57.373 31.7239 57.373 32C57.373 32.2761 57.5969 32.5 57.873 32.5V31.5ZM2 32.5C2.27615 32.5 2.5 32.2761 2.5 32C2.5 31.7239 2.27615 31.5 2 31.5L2 32.5ZM5.99092 31.5C5.71478 31.5 5.49092 31.7239 5.49092 32C5.49092 32.2761 5.71478 32.5 5.99092 32.5L5.99092 31.5ZM5.99093 32.5C6.26708 32.5 6.49093 32.2761 6.49093 32C6.49093 31.7239 6.26708 31.5 5.99093 31.5L5.99093 32.5ZM9.98185 31.5C9.70571 31.5 9.48185 31.7239 9.48185 32C9.48185 32.2761 9.70571 32.5 9.98185 32.5L9.98185 31.5ZM9.98186 32.5C10.258 32.5 10.4819 32.2761 10.4819 32C10.4819 31.7239 10.258 31.5 9.98186 31.5L9.98186 32.5ZM13.9728 31.5C13.6966 31.5 13.4728 31.7239 13.4728 32C13.4728 32.2761 13.6966 32.5 13.9728 32.5L13.9728 31.5ZM13.9728 32.5C14.2489 32.5 14.4728 32.2761 14.4728 32C14.4728 31.7239 14.2489 31.5 13.9728 31.5L13.9728 32.5ZM17.9637 31.5C17.6876 31.5 17.4637 31.7239 17.4637 32C17.4637 32.2761 17.6876 32.5 17.9637 32.5L17.9637 31.5ZM17.9637 32.5C18.2399 32.5 18.4637 32.2761 18.4637 32C18.4637 31.7239 18.2399 31.5 17.9637 31.5L17.9637 32.5ZM21.9546 31.5C21.6785 31.5 21.4546 31.7239 21.4546 32C21.4546 32.2761 21.6785 32.5 21.9546 32.5L21.9546 31.5ZM21.9547 32.5C22.2308 32.5 22.4547 32.2761 22.4547 32C22.4547 31.7239 22.2308 31.5 21.9547 31.5L21.9547 32.5ZM25.9456 31.5C25.6694 31.5 25.4456 31.7239 25.4456 32C25.4456 32.2761 25.6694 32.5 25.9456 32.5L25.9456 31.5ZM25.9456 32.5C26.2217 32.5 26.4456 32.2761 26.4456 32C26.4456 31.7239 26.2217 31.5 25.9456 31.5L25.9456 32.5ZM29.9365 31.5C29.6604 31.5 29.4365 31.7239 29.4365 32C29.4365 32.2761 29.6604 32.5 29.9365 32.5L29.9365 31.5ZM29.9365 32.5C30.2127 32.5 30.4365 32.2761 30.4365 32C30.4365 31.7239 30.2127 31.5 29.9365 31.5L29.9365 32.5ZM33.9274 31.5C33.6513 31.5 33.4274 31.7239 33.4274 32C33.4274 32.2761 33.6513 32.5 33.9274 32.5L33.9274 31.5ZM33.9274 32.5C34.2036 32.5 34.4274 32.2761 34.4274 32C34.4274 31.7239 34.2036 31.5 33.9274 31.5L33.9274 32.5ZM37.9184 31.5C37.6422 31.5 37.4184 31.7239 37.4184 32C37.4184 32.2761 37.6422 32.5 37.9184 32.5L37.9184 31.5ZM37.9184 32.5C38.1945 32.5 38.4184 32.2761 38.4184 32C38.4184 31.7239 38.1945 31.5 37.9184 31.5L37.9184 32.5ZM41.9093 31.5C41.6332 31.5 41.4093 31.7239 41.4093 32C41.4093 32.2761 41.6332 32.5 41.9093 32.5L41.9093 31.5ZM41.9093 32.5C42.1854 32.5 42.4093 32.2761 42.4093 32C42.4093 31.7239 42.1854 31.5 41.9093 31.5L41.9093 32.5ZM45.9002 31.5C45.6241 31.5 45.4002 31.7239 45.4002 32C45.4002 32.2761 45.6241 32.5 45.9002 32.5L45.9002 31.5ZM45.9002 32.5C46.1764 32.5 46.4002 32.2761 46.4002 32C46.4002 31.7239 46.1764 31.5 45.9002 31.5L45.9002 32.5ZM49.8912 31.5C49.615 31.5 49.3912 31.7239 49.3912 32C49.3912 32.2761 49.615 32.5 49.8912 32.5L49.8912 31.5ZM49.8912 32.5C50.1673 32.5 50.3912 32.2761 50.3912 32C50.3912 31.7239 50.1673 31.5 49.8912 31.5L49.8912 32.5ZM53.8821 31.5C53.6059 31.5 53.3821 31.7239 53.3821 32C53.3821 32.2761 53.6059 32.5 53.8821 32.5L53.8821 31.5ZM53.8821 32.5C54.1582 32.5 54.3821 32.2761 54.3821 32C54.3821 31.7239 54.1582 31.5 53.8821 31.5L53.8821 32.5ZM57.873 32.5C58.1492 32.5 58.373 32.2761 58.373 32C58.373 31.7239 58.1492 31.5 57.873 31.5L57.873 32.5ZM62.1593 32.6218C61.9189 32.4859 61.6138 32.5707 61.478 32.8111C61.3421 33.0515 61.4269 33.3565 61.6673 33.4924L62.1593 32.6218ZM61.6673 33.4924C61.9077 33.6282 62.2127 33.5435 62.3486 33.3031C62.4844 33.0627 62.3997 32.7576 62.1593 32.6218L61.6673 33.4924ZM65.3286 35.7208C65.1878 35.4832 64.8811 35.4048 64.6435 35.5455C64.406 35.6863 64.3275 35.9929 64.4682 36.2305L65.3286 35.7208ZM64.4682 36.2305C64.609 36.4681 64.9157 36.5466 65.1533 36.4059C65.3908 36.2651 65.4693 35.9584 65.3286 35.7208L64.4682 36.2305ZM66.5 40C66.5 39.7239 66.2761 39.5 66 39.5C65.7239 39.5 65.5 39.7239 65.5 40L66.5 40ZM65.5 40C65.5 40.2761 65.7239 40.5 66 40.5C66.2761 40.5 66.5 40.2761 66.5 40H65.5ZM66.5 43.9655C66.5 43.6894 66.2761 43.4655 66 43.4655C65.7239 43.4655 65.5 43.6894 65.5 43.9655H66.5ZM65.5 43.9655C65.5 44.2417 65.7239 44.4655 66 44.4655C66.2761 44.4655 66.5 44.2417 66.5 43.9655H65.5ZM66.5 47.9311C66.5 47.6549 66.2761 47.4311 66 47.4311C65.7239 47.4311 65.5 47.6549 65.5 47.9311H66.5ZM65.5 47.9311C65.5 48.2072 65.7239 48.4311 66 48.4311C66.2761 48.4311 66.5 48.2072 66.5 47.9311H65.5ZM66.5 51.8966C66.5 51.6204 66.2761 51.3966 66 51.3966C65.7239 51.3966 65.5 51.6204 65.5 51.8966H66.5ZM65.5 51.8966C65.5 52.1727 65.7239 52.3966 66 52.3966C66.2761 52.3966 66.5 52.1727 66.5 51.8966H65.5ZM66.5 55.8621C66.5 55.586 66.2761 55.3621 66 55.3621C65.7239 55.3621 65.5 55.586 65.5 55.8621H66.5ZM65.5 55.8621C65.5 56.1383 65.7239 56.3621 66 56.3621C66.2761 56.3621 66.5 56.1383 66.5 55.8621H65.5ZM66.5 59.8276C66.5 59.5515 66.2761 59.3276 66 59.3276C65.7239 59.3276 65.5 59.5515 65.5 59.8276H66.5ZM65.5 59.8276C65.5 60.1038 65.7239 60.3276 66 60.3276C66.2761 60.3276 66.5 60.1038 66.5 59.8276H65.5ZM66.5 63.7932C66.5 63.517 66.2761 63.2932 66 63.2932C65.7239 63.2932 65.5 63.517 65.5 63.7932H66.5ZM65.5 63.7932C65.5 64.0693 65.7239 64.2932 66 64.2932C66.2761 64.2932 66.5 64.0693 66.5 63.7932H65.5ZM66.5 67.7587C66.5 67.4826 66.2761 67.2587 66 67.2587C65.7239 67.2587 65.5 67.4826 65.5 67.7587H66.5ZM65.5 67.7587C65.5 68.0348 65.7239 68.2587 66 68.2587C66.2761 68.2587 66.5 68.0348 66.5 67.7587H65.5ZM66.5 71.7242C66.5 71.4481 66.2761 71.2242 66 71.2242C65.7239 71.2242 65.5 71.4481 65.5 71.7242H66.5ZM65.5 71.7242C65.5 72.0004 65.7239 72.2242 66 72.2242C66.2761 72.2242 66.5 72.0004 66.5 71.7242H65.5ZM66.5 75.6897C66.5 75.4136 66.2761 75.1897 66 75.1897C65.7239 75.1897 65.5 75.4136 65.5 75.6897H66.5ZM65.5 75.6898C65.5 75.9659 65.7239 76.1898 66 76.1898C66.2761 76.1898 66.5 75.9659 66.5 75.6898H65.5ZM66.5 79.6553C66.5 79.3791 66.2761 79.1553 66 79.1553C65.7239 79.1553 65.5 79.3791 65.5 79.6553H66.5ZM65.5 79.6553C65.5 79.9314 65.7239 80.1553 66 80.1553C66.2761 80.1553 66.5 79.9314 66.5 79.6553H65.5ZM66.5 83.6208C66.5 83.3447 66.2761 83.1208 66 83.1208C65.7239 83.1208 65.5 83.3447 65.5 83.6208H66.5ZM65.5 83.6208C65.5 83.897 65.7239 84.1208 66 84.1208C66.2761 84.1208 66.5 83.897 66.5 83.6208H65.5ZM66.5 87.5863C66.5 87.3102 66.2761 87.0863 66 87.0863C65.7239 87.0863 65.5 87.3102 65.5 87.5863H66.5ZM65.5 87.5864C65.5 87.8625 65.7239 88.0864 66 88.0864C66.2761 88.0864 66.5 87.8625 66.5 87.5864H65.5ZM2 32.5H2L2 31.5H2L2 32.5ZM5.99092 32.5H5.99093L5.99093 31.5H5.99092L5.99092 32.5ZM9.98185 32.5H9.98186L9.98186 31.5H9.98185L9.98185 32.5ZM13.9728 32.5H13.9728L13.9728 31.5H13.9728L13.9728 32.5ZM17.9637 32.5H17.9637L17.9637 31.5H17.9637L17.9637 32.5ZM21.9546 32.5H21.9547L21.9547 31.5H21.9546L21.9546 32.5ZM25.9456 32.5H25.9456L25.9456 31.5H25.9456L25.9456 32.5ZM29.9365 32.5H29.9365L29.9365 31.5H29.9365L29.9365 32.5ZM33.9274 32.5H33.9274L33.9274 31.5H33.9274L33.9274 32.5ZM37.9184 32.5H37.9184L37.9184 31.5H37.9184L37.9184 32.5ZM41.9093 32.5H41.9093L41.9093 31.5H41.9093L41.9093 32.5ZM45.9002 32.5H45.9002L45.9002 31.5H45.9002L45.9002 32.5ZM49.8912 32.5H49.8912L49.8912 31.5H49.8912L49.8912 32.5ZM53.8821 32.5H53.8821L53.8821 31.5H53.8821L53.8821 32.5ZM57.873 32.5C57.873 32.5 57.873 32.5 57.873 32.5L57.873 31.5C57.873 31.5 57.873 31.5 57.873 31.5V32.5ZM61.6673 33.4924C61.6673 33.4924 61.6673 33.4924 61.6673 33.4924L62.1593 32.6218C62.1593 32.6218 62.1593 32.6218 62.1593 32.6218L61.6673 33.4924ZM64.4682 36.2305C64.4682 36.2305 64.4682 36.2305 64.4682 36.2305L65.3286 35.7208C65.3286 35.7208 65.3286 35.7208 65.3286 35.7208L64.4682 36.2305ZM65.5 40C65.5 40 65.5 40 65.5 40H66.5C66.5 40 66.5 40 66.5 40L65.5 40ZM65.5 40V40H66.5V40H65.5ZM65.5 43.9655V43.9655H66.5V43.9655H65.5ZM65.5 47.9311V47.9311H66.5V47.9311H65.5ZM65.5 51.8966V51.8966H66.5V51.8966H65.5ZM65.5 55.8621V55.8621H66.5V55.8621H65.5ZM65.5 59.8276V59.8276H66.5V59.8276H65.5ZM65.5 63.7932V63.7932H66.5V63.7932H65.5ZM65.5 67.7587V67.7587H66.5V67.7587H65.5ZM65.5 71.7242V71.7242H66.5V71.7242H65.5ZM65.5 75.6897V75.6898H66.5V75.6897H65.5ZM65.5 79.6553V79.6553H66.5V79.6553H65.5ZM65.5 83.6208V83.6208H66.5V83.6208H65.5ZM65.5 87.5863V87.5864H66.5V87.5863H65.5Z" fill="#CBC1FA"/>
<path d="M396 136.5C396.276 136.5 396.5 136.276 396.5 136C396.5 135.724 396.276 135.5 396 135.5V136.5ZM331.5 101.477C331.5 101.753 331.724 101.977 332 101.977C332.276 101.977 332.5 101.753 332.5 101.477H331.5ZM332.5 105.266C332.5 104.99 332.276 104.766 332 104.766C331.724 104.766 331.5 104.99 331.5 105.266H332.5ZM331.5 105.266C331.5 105.542 331.724 105.766 332 105.766C332.276 105.766 332.5 105.542 332.5 105.266H331.5ZM332.5 109.055C332.5 108.779 332.276 108.555 332 108.555C331.724 108.555 331.5 108.779 331.5 109.055H332.5ZM331.5 109.055C331.5 109.331 331.724 109.555 332 109.555C332.276 109.555 332.5 109.331 332.5 109.055H331.5ZM332.5 112.844C332.5 112.568 332.276 112.344 332 112.344C331.724 112.344 331.5 112.568 331.5 112.844H332.5ZM331.5 112.844C331.5 113.12 331.724 113.344 332 113.344C332.276 113.344 332.5 113.12 332.5 112.844H331.5ZM332.5 116.633C332.5 116.357 332.276 116.133 332 116.133C331.724 116.133 331.5 116.357 331.5 116.633H332.5ZM331.5 116.633C331.5 116.909 331.724 117.133 332 117.133C332.276 117.133 332.5 116.909 332.5 116.633H331.5ZM332.5 120.422C332.5 120.146 332.276 119.922 332 119.922C331.724 119.922 331.5 120.146 331.5 120.422H332.5ZM331.5 120.422C331.5 120.698 331.724 120.922 332 120.922C332.276 120.922 332.5 120.698 332.5 120.422H331.5ZM332.5 124.211C332.5 123.935 332.276 123.711 332 123.711C331.724 123.711 331.5 123.935 331.5 124.211H332.5ZM331.5 124.211C331.5 124.487 331.724 124.711 332 124.711C332.276 124.711 332.5 124.487 332.5 124.211H331.5ZM332.5 128C332.5 127.724 332.276 127.5 332 127.5C331.724 127.5 331.5 127.724 331.5 128H332.5ZM331.5 128C331.5 128.276 331.724 128.5 332 128.5C332.276 128.5 332.5 128.276 332.5 128L331.5 128ZM333.503 131.75C333.365 131.511 333.059 131.43 332.82 131.568C332.581 131.706 332.5 132.012 332.638 132.251L333.503 131.75ZM332.638 132.251C332.776 132.49 333.082 132.572 333.321 132.434C333.56 132.295 333.642 131.989 333.503 131.75L332.638 132.251ZM336.25 134.497C336.011 134.358 335.705 134.44 335.567 134.679C335.428 134.918 335.51 135.224 335.749 135.362L336.25 134.497ZM335.749 135.362C335.988 135.501 336.294 135.419 336.432 135.18C336.57 134.941 336.489 134.635 336.25 134.497L335.749 135.362ZM340 135.5C339.724 135.5 339.5 135.724 339.5 136C339.5 136.276 339.724 136.5 340 136.5L340 135.5ZM340 136.5C340.276 136.5 340.5 136.276 340.5 136C340.5 135.724 340.276 135.5 340 135.5V136.5ZM344 135.5C343.724 135.5 343.5 135.724 343.5 136C343.5 136.276 343.724 136.5 344 136.5V135.5ZM344 136.5C344.276 136.5 344.5 136.276 344.5 136C344.5 135.724 344.276 135.5 344 135.5V136.5ZM348 135.5C347.724 135.5 347.5 135.724 347.5 136C347.5 136.276 347.724 136.5 348 136.5V135.5ZM348 136.5C348.276 136.5 348.5 136.276 348.5 136C348.5 135.724 348.276 135.5 348 135.5V136.5ZM352 135.5C351.724 135.5 351.5 135.724 351.5 136C351.5 136.276 351.724 136.5 352 136.5V135.5ZM352 136.5C352.276 136.5 352.5 136.276 352.5 136C352.5 135.724 352.276 135.5 352 135.5V136.5ZM356 135.5C355.724 135.5 355.5 135.724 355.5 136C355.5 136.276 355.724 136.5 356 136.5V135.5ZM356 136.5C356.276 136.5 356.5 136.276 356.5 136C356.5 135.724 356.276 135.5 356 135.5V136.5ZM360 135.5C359.724 135.5 359.5 135.724 359.5 136C359.5 136.276 359.724 136.5 360 136.5V135.5ZM360 136.5C360.276 136.5 360.5 136.276 360.5 136C360.5 135.724 360.276 135.5 360 135.5V136.5ZM364 135.5C363.724 135.5 363.5 135.724 363.5 136C363.5 136.276 363.724 136.5 364 136.5V135.5ZM364 136.5C364.276 136.5 364.5 136.276 364.5 136C364.5 135.724 364.276 135.5 364 135.5V136.5ZM368 135.5C367.724 135.5 367.5 135.724 367.5 136C367.5 136.276 367.724 136.5 368 136.5V135.5ZM368 136.5C368.276 136.5 368.5 136.276 368.5 136C368.5 135.724 368.276 135.5 368 135.5V136.5ZM372 135.5C371.724 135.5 371.5 135.724 371.5 136C371.5 136.276 371.724 136.5 372 136.5V135.5ZM372 136.5C372.276 136.5 372.5 136.276 372.5 136C372.5 135.724 372.276 135.5 372 135.5V136.5ZM376 135.5C375.724 135.5 375.5 135.724 375.5 136C375.5 136.276 375.724 136.5 376 136.5V135.5ZM376 136.5C376.276 136.5 376.5 136.276 376.5 136C376.5 135.724 376.276 135.5 376 135.5V136.5ZM380 135.5C379.724 135.5 379.5 135.724 379.5 136C379.5 136.276 379.724 136.5 380 136.5V135.5ZM380 136.5C380.276 136.5 380.5 136.276 380.5 136C380.5 135.724 380.276 135.5 380 135.5V136.5ZM384 135.5C383.724 135.5 383.5 135.724 383.5 136C383.5 136.276 383.724 136.5 384 136.5V135.5ZM384 136.5C384.276 136.5 384.5 136.276 384.5 136C384.5 135.724 384.276 135.5 384 135.5V136.5ZM388 135.5C387.724 135.5 387.5 135.724 387.5 136C387.5 136.276 387.724 136.5 388 136.5V135.5ZM388 136.5C388.276 136.5 388.5 136.276 388.5 136C388.5 135.724 388.276 135.5 388 135.5V136.5ZM392 135.5C391.724 135.5 391.5 135.724 391.5 136C391.5 136.276 391.724 136.5 392 136.5V135.5ZM392 136.5C392.276 136.5 392.5 136.276 392.5 136C392.5 135.724 392.276 135.5 392 135.5V136.5ZM396 135.5C395.724 135.5 395.5 135.724 395.5 136C395.5 136.276 395.724 136.5 396 136.5V135.5ZM331.5 101.477V101.477H332.5V101.477H331.5ZM331.5 105.266V105.266H332.5V105.266H331.5ZM331.5 109.055V109.055H332.5V109.055H331.5ZM331.5 112.844V112.844H332.5V112.844H331.5ZM331.5 116.633V116.633H332.5V116.633H331.5ZM331.5 120.422V120.422H332.5V120.422H331.5ZM331.5 124.211V124.211H332.5V124.211H331.5ZM331.5 128V128H332.5V128H331.5ZM331.5 128C331.5 128 331.5 128 331.5 128L332.5 128C332.5 128 332.5 128 332.5 128H331.5ZM332.638 132.251C332.638 132.251 332.638 132.251 332.638 132.251L333.503 131.75C333.503 131.75 333.503 131.75 333.503 131.75L332.638 132.251ZM335.749 135.362C335.749 135.362 335.749 135.362 335.749 135.362L336.25 134.497C336.25 134.497 336.25 134.497 336.25 134.497L335.749 135.362ZM340 136.5C340 136.5 340 136.5 340 136.5V135.5C340 135.5 340 135.5 340 135.5L340 136.5ZM340 136.5H340V135.5H340V136.5ZM344 136.5H344V135.5H344V136.5ZM348 136.5H348V135.5H348V136.5ZM352 136.5H352V135.5H352V136.5ZM356 136.5H356V135.5H356V136.5ZM360 136.5H360V135.5H360V136.5ZM364 136.5H364V135.5H364V136.5ZM368 136.5H368V135.5H368V136.5ZM372 136.5H372V135.5H372V136.5ZM376 136.5H376V135.5H376V136.5ZM380 136.5H380V135.5H380V136.5ZM384 136.5H384V135.5H384V136.5ZM388 136.5H388V135.5H388V136.5ZM392 136.5H392V135.5H392V136.5ZM396 136.5H396V135.5H396V136.5Z" fill="#9AE0BE"/>
<path d="M66 101.477V128C66 132.418 69.5817 136 74 136H191.75C196.169 136 199.75 132.418 199.75 128V40C199.75 35.5817 203.332 32 207.75 32H323C327.418 32 331 35.5817 331 40V91.5519" stroke="#ECECF4"/>
<rect x="45" y="65" width="42" height="42" rx="21" fill="white" stroke="#D1D0DC" stroke-width="2"/>
<rect x="311" y="65" width="42" height="42" rx="9" fill="white" stroke="#35956A" stroke-width="2"/>
<rect x="199.285" y="54.5858" width="42" height="42" rx="9" transform="rotate(45 199.285 54.5858)" fill="white" stroke="#473CAF" stroke-width="2"/>
</svg>
